<svg xmlns="http://www.w3.org/2000/svg" width="91mm" height="61mm" viewBox="-3 -3 91 61">
  <rect x="-3" y="-3" width="91" height="61" fill="#FDFBF7"/>
  <g fill="#8B3A2A">
    <rect x="31.700" y="13.150" width="14.400" height="2.400" rx="1.200"/>
    <rect x="35.300" y="16.510" width="18.000" height="2.400" rx="1.200"/>
    <rect x="30.500" y="19.870" width="10.800" height="2.400" rx="1.200"/>
    <rect x="34.100" y="23.230" width="19.200" height="2.400" rx="1.200"/>
    <rect x="37.700" y="26.590" width="8.400" height="2.400" rx="1.200"/>
    <rect x="32.900" y="29.950" width="15.600" height="2.400" rx="1.200"/>
  </g>
  <g transform="translate(15.685,44.250)" fill="#6B6560"><path transform="translate(0.000,0) scale(0.001678,-0.001678)" d="M52 0 593 1490H813L1361 0H1161L1012 416H398L254 0ZM456 582H953L845 884Q818 959 784.0 1067.5Q750 1176 702 1338Q655 1173 620.0 1063.0Q585 953 561 884Z"/><path transform="translate(2.371,0) scale(0.001678,-0.001678)" d="M537 -14Q368 -14 263.0 91.0Q158 196 158 408V1118H338V423Q338 294 406.0 221.0Q474 148 591 148Q711 148 791.5 226.5Q872 305 872 448V1118H1053V0H879V209Q824 87 735.5 36.5Q647 -14 537 -14Z"/><path transform="translate(4.403,0) scale(0.001678,-0.001678)" d="M598 1118V964H368V290Q368 215 398.5 180.5Q429 146 500 146Q517 146 543.5 150.0Q570 154 592 158L629 6Q601 -4 565.5 -9.0Q530 -14 495 -14Q350 -14 269.0 62.5Q188 139 188 276V964H20V1118H188V1384H368V1118Z"/><path transform="translate(5.527,0) scale(0.001678,-0.001678)" d="M613 -24Q461 -24 346.5 48.0Q232 120 168.0 250.0Q104 380 104 552Q104 727 168.0 857.5Q232 988 346.5 1060.0Q461 1132 613 1132Q766 1132 881.0 1060.0Q996 988 1060.0 857.5Q1124 727 1124 552Q1124 380 1060.0 250.0Q996 120 881.0 48.0Q766 -24 613 -24ZM613 137Q726 137 799.0 195.0Q872 253 907.0 347.5Q942 442 942 552Q942 663 907.0 758.5Q872 854 799.0 912.5Q726 971 613 971Q501 971 429.0 912.5Q357 854 322.0 759.0Q287 664 287 552Q287 442 322.0 347.5Q357 253 429.0 195.0Q501 137 613 137Z"/><path transform="translate(7.587,0) scale(0.001678,-0.001678)" d="M158 0V1118H333L334 913Q375 1026 461.5 1082.0Q548 1138 647 1138Q757 1138 829.5 1075.5Q902 1013 932 910Q972 1016 1067.5 1077.0Q1163 1138 1284 1138Q1381 1138 1461.0 1096.0Q1541 1054 1588.5 969.0Q1636 884 1636 754V0H1456V749Q1456 870 1388.0 922.0Q1320 974 1230 974Q1117 974 1052.0 905.0Q987 836 987 730V0H807V767Q807 860 745.0 917.0Q683 974 588 974Q490 974 414.0 906.0Q338 838 338 704V0Z"/><path transform="translate(10.597,0) scale(0.001678,-0.001678)" d="M471 -26Q365 -26 278.5 14.0Q192 54 141.0 131.0Q90 208 90 318Q90 414 128.0 474.0Q166 534 229.5 568.5Q293 603 370.0 620.0Q447 637 525 647Q625 660 688.0 667.0Q751 674 781.5 691.0Q812 708 812 749V755Q812 859 753.0 916.5Q694 974 578 974Q457 974 389.0 921.5Q321 869 295 810L122 867Q165 969 238.0 1026.5Q311 1084 399.0 1108.0Q487 1132 573 1132Q629 1132 700.5 1118.5Q772 1105 838.5 1065.0Q905 1025 948.5 946.5Q992 868 992 737V0H815V152H803Q784 113 742.0 71.5Q700 30 633.0 2.0Q566 -26 471 -26ZM502 133Q602 133 671.0 172.0Q740 211 776.0 273.5Q812 336 812 404V559Q801 546 764.0 535.5Q727 525 679.5 517.0Q632 509 587.5 503.5Q543 498 517 495Q452 487 395.5 467.5Q339 448 305.0 410.5Q271 373 271 309Q271 222 336.5 177.5Q402 133 502 133Z"/><path transform="translate(12.527,0) scale(0.001678,-0.001678)" d="M598 1118V964H368V290Q368 215 398.5 180.5Q429 146 500 146Q517 146 543.5 150.0Q570 154 592 158L629 6Q601 -4 565.5 -9.0Q530 -14 495 -14Q350 -14 269.0 62.5Q188 139 188 276V964H20V1118H188V1384H368V1118Z"/><path transform="translate(13.651,0) scale(0.001678,-0.001678)" d="M158 0V1118H338V0ZM249 1301Q198 1301 161.0 1336.0Q124 1371 124 1420Q124 1470 161.0 1504.5Q198 1539 249 1539Q301 1539 338.0 1504.5Q375 1470 375 1420Q375 1371 338.0 1336.0Q301 1301 249 1301Z"/><path transform="translate(14.483,0) scale(0.001678,-0.001678)" d="M613 -24Q461 -24 346.5 48.0Q232 120 168.0 250.0Q104 380 104 552Q104 727 168.0 857.5Q232 988 346.5 1060.0Q461 1132 613 1132Q766 1132 881.0 1060.0Q996 988 1060.0 857.5Q1124 727 1124 552Q1124 380 1060.0 250.0Q996 120 881.0 48.0Q766 -24 613 -24ZM613 137Q726 137 799.0 195.0Q872 253 907.0 347.5Q942 442 942 552Q942 663 907.0 758.5Q872 854 799.0 912.5Q726 971 613 971Q501 971 429.0 912.5Q357 854 322.0 759.0Q287 664 287 552Q287 442 322.0 347.5Q357 253 429.0 195.0Q501 137 613 137Z"/><path transform="translate(16.544,0) scale(0.001678,-0.001678)" d="M338 670V0H158V1118H331L332 911Q386 1030 473.5 1081.0Q561 1132 674 1132Q844 1132 948.0 1027.0Q1052 922 1052 710V0H872V695Q872 824 804.5 897.0Q737 970 620 970Q499 970 418.5 891.5Q338 813 338 670Z"/><path transform="translate(18.574,0) scale(0.001678,-0.001678)" d="M538 -24Q366 -24 252.0 51.0Q138 126 108 271L279 312Q303 220 369.5 177.0Q436 134 536 134Q653 134 722.5 184.0Q792 234 792 303Q792 418 628 457L442 501Q142 572 142 806Q142 902 196.0 975.5Q250 1049 343.5 1090.5Q437 1132 556 1132Q729 1132 824.5 1056.5Q920 981 958 863L795 821Q772 881 718.5 930.0Q665 979 557 979Q457 979 390.5 933.0Q324 887 324 817Q324 755 369.0 717.5Q414 680 512 657L681 617Q833 581 906.0 505.5Q979 430 979 315Q979 217 923.5 140.5Q868 64 768.5 20.0Q669 -24 538 -24Z"/><path transform="translate(21.247,0) scale(0.001678,-0.001678)" d="M678 1118V964H420V0H240V964H20V1118H240V1267Q240 1364 285.5 1429.0Q331 1494 404.0 1527.0Q477 1560 558 1560Q622 1560 664.0 1549.5Q706 1539 726 1530L676 1376Q662 1381 639.5 1387.0Q617 1393 579 1393Q496 1393 458.0 1350.5Q420 1308 420 1227V1118Z"/><path transform="translate(22.518,0) scale(0.001678,-0.001678)" d="M613 -24Q461 -24 346.5 48.0Q232 120 168.0 250.0Q104 380 104 552Q104 727 168.0 857.5Q232 988 346.5 1060.0Q461 1132 613 1132Q766 1132 881.0 1060.0Q996 988 1060.0 857.5Q1124 727 1124 552Q1124 380 1060.0 250.0Q996 120 881.0 48.0Q766 -24 613 -24ZM613 137Q726 137 799.0 195.0Q872 253 907.0 347.5Q942 442 942 552Q942 663 907.0 758.5Q872 854 799.0 912.5Q726 971 613 971Q501 971 429.0 912.5Q357 854 322.0 759.0Q287 664 287 552Q287 442 322.0 347.5Q357 253 429.0 195.0Q501 137 613 137Z"/><path transform="translate(24.579,0) scale(0.001678,-0.001678)" d="M158 0V1118H332V946H344Q375 1031 454.5 1082.5Q534 1134 634 1134Q654 1134 681.5 1133.0Q709 1132 725 1131V950Q717 952 685.0 956.0Q653 960 617 960Q496 960 417.0 886.5Q338 813 338 700V0Z"/><path transform="translate(26.732,0) scale(0.001678,-0.001678)" d="M577 -24Q438 -24 331.0 47.0Q224 118 164.0 248.0Q104 378 104 556Q104 733 164.5 862.5Q225 992 332.0 1062.0Q439 1132 578 1132Q687 1132 751.0 1096.0Q815 1060 849.5 1014.5Q884 969 902 939H916V1490H1096V0H922V173H902Q884 142 848.5 95.5Q813 49 748.5 12.5Q684 -24 577 -24ZM604 137Q756 137 837.0 254.0Q918 371 918 558Q918 743 838.5 857.0Q759 971 604 971Q498 971 427.5 916.0Q357 861 322.0 767.5Q287 674 287 558Q287 441 322.5 345.5Q358 250 429.0 193.5Q500 137 604 137Z"/><path transform="translate(28.836,0) scale(0.001678,-0.001678)" d="M628 -24Q466 -24 348.5 48.0Q231 120 167.5 249.0Q104 378 104 550Q104 722 166.0 853.0Q228 984 341.5 1058.0Q455 1132 607 1132Q696 1132 782.5 1102.5Q869 1073 939.5 1007.5Q1010 942 1052.0 835.0Q1094 728 1094 573V498H286Q293 323 386.5 229.5Q480 136 629 136Q728 136 799.5 179.5Q871 223 902 308L1076 260Q1037 133 918.5 54.5Q800 -24 628 -24ZM287 650H911Q898 793 821.5 882.5Q745 972 607 972Q511 972 441.5 927.0Q372 882 332.0 809.0Q292 736 287 650Z"/><path transform="translate(30.839,0) scale(0.001678,-0.001678)" d="M338 670V0H158V1118H331L332 911Q386 1030 473.5 1081.0Q561 1132 674 1132Q844 1132 948.0 1027.0Q1052 922 1052 710V0H872V695Q872 824 804.5 897.0Q737 970 620 970Q499 970 418.5 891.5Q338 813 338 670Z"/><path transform="translate(32.869,0) scale(0.001678,-0.001678)" d="M598 1118V964H368V290Q368 215 398.5 180.5Q429 146 500 146Q517 146 543.5 150.0Q570 154 592 158L629 6Q601 -4 565.5 -9.0Q530 -14 495 -14Q350 -14 269.0 62.5Q188 139 188 276V964H20V1118H188V1384H368V1118Z"/><path transform="translate(33.993,0) scale(0.001678,-0.001678)" d="M471 -26Q365 -26 278.5 14.0Q192 54 141.0 131.0Q90 208 90 318Q90 414 128.0 474.0Q166 534 229.5 568.5Q293 603 370.0 620.0Q447 637 525 647Q625 660 688.0 667.0Q751 674 781.5 691.0Q812 708 812 749V755Q812 859 753.0 916.5Q694 974 578 974Q457 974 389.0 921.5Q321 869 295 810L122 867Q165 969 238.0 1026.5Q311 1084 399.0 1108.0Q487 1132 573 1132Q629 1132 700.5 1118.5Q772 1105 838.5 1065.0Q905 1025 948.5 946.5Q992 868 992 737V0H815V152H803Q784 113 742.0 71.5Q700 30 633.0 2.0Q566 -26 471 -26ZM502 133Q602 133 671.0 172.0Q740 211 776.0 273.5Q812 336 812 404V559Q801 546 764.0 535.5Q727 525 679.5 517.0Q632 509 587.5 503.5Q543 498 517 495Q452 487 395.5 467.5Q339 448 305.0 410.5Q271 373 271 309Q271 222 336.5 177.5Q402 133 502 133Z"/><path transform="translate(35.923,0) scale(0.001678,-0.001678)" d="M338 1490V0H158V1490Z"/><path transform="translate(37.614,0) scale(0.001678,-0.001678)" d="M158 -418V1118H332V939H352Q371 969 405.0 1014.5Q439 1060 503.0 1096.0Q567 1132 676 1132Q816 1132 922.5 1062.0Q1029 992 1089.5 862.5Q1150 733 1150 556Q1150 378 1090.0 248.0Q1030 118 923.5 47.0Q817 -24 677 -24Q571 -24 506.0 12.5Q441 49 406.0 95.5Q371 142 352 173H338V-418ZM650 137Q755 137 825.5 193.5Q896 250 931.5 345.5Q967 441 967 558Q967 674 932.0 767.5Q897 861 826.5 916.0Q756 971 650 971Q496 971 416.0 857.0Q336 743 336 558Q336 371 417.0 254.0Q498 137 650 137Z"/><path transform="translate(39.718,0) scale(0.001678,-0.001678)" d="M158 0V1118H332V946H344Q375 1031 454.5 1082.5Q534 1134 634 1134Q654 1134 681.5 1133.0Q709 1132 725 1131V950Q717 952 685.0 956.0Q653 960 617 960Q496 960 417.0 886.5Q338 813 338 700V0Z"/><path transform="translate(41.012,0) scale(0.001678,-0.001678)" d="M471 -26Q365 -26 278.5 14.0Q192 54 141.0 131.0Q90 208 90 318Q90 414 128.0 474.0Q166 534 229.5 568.5Q293 603 370.0 620.0Q447 637 525 647Q625 660 688.0 667.0Q751 674 781.5 691.0Q812 708 812 749V755Q812 859 753.0 916.5Q694 974 578 974Q457 974 389.0 921.5Q321 869 295 810L122 867Q165 969 238.0 1026.5Q311 1084 399.0 1108.0Q487 1132 573 1132Q629 1132 700.5 1118.5Q772 1105 838.5 1065.0Q905 1025 948.5 946.5Q992 868 992 737V0H815V152H803Q784 113 742.0 71.5Q700 30 633.0 2.0Q566 -26 471 -26ZM502 133Q602 133 671.0 172.0Q740 211 776.0 273.5Q812 336 812 404V559Q801 546 764.0 535.5Q727 525 679.5 517.0Q632 509 587.5 503.5Q543 498 517 495Q452 487 395.5 467.5Q339 448 305.0 410.5Q271 373 271 309Q271 222 336.5 177.5Q402 133 502 133Z"/><path transform="translate(42.941,0) scale(0.001678,-0.001678)" d="M613 -24Q461 -24 346.5 48.0Q232 120 168.0 250.0Q104 380 104 552Q104 727 168.0 857.5Q232 988 346.5 1060.0Q461 1132 613 1132Q775 1132 897.5 1050.5Q1020 969 1066 823L893 774Q868 860 795.5 915.5Q723 971 613 971Q501 971 429.0 912.5Q357 854 322.0 759.0Q287 664 287 552Q287 442 322.0 347.5Q357 253 429.0 195.0Q501 137 613 137Q726 137 799.5 194.5Q873 252 898 343L1070 294Q1025 145 901.0 60.5Q777 -24 613 -24Z"/><path transform="translate(44.904,0) scale(0.001678,-0.001678)" d="M598 1118V964H368V290Q368 215 398.5 180.5Q429 146 500 146Q517 146 543.5 150.0Q570 154 592 158L629 6Q601 -4 565.5 -9.0Q530 -14 495 -14Q350 -14 269.0 62.5Q188 139 188 276V964H20V1118H188V1384H368V1118Z"/><path transform="translate(46.029,0) scale(0.001678,-0.001678)" d="M158 0V1118H338V0ZM249 1301Q198 1301 161.0 1336.0Q124 1371 124 1420Q124 1470 161.0 1504.5Q198 1539 249 1539Q301 1539 338.0 1504.5Q375 1470 375 1420Q375 1371 338.0 1336.0Q301 1301 249 1301Z"/><path transform="translate(46.861,0) scale(0.001678,-0.001678)" d="M613 -24Q461 -24 346.5 48.0Q232 120 168.0 250.0Q104 380 104 552Q104 727 168.0 857.5Q232 988 346.5 1060.0Q461 1132 613 1132Q775 1132 897.5 1050.5Q1020 969 1066 823L893 774Q868 860 795.5 915.5Q723 971 613 971Q501 971 429.0 912.5Q357 854 322.0 759.0Q287 664 287 552Q287 442 322.0 347.5Q357 253 429.0 195.0Q501 137 613 137Q726 137 799.5 194.5Q873 252 898 343L1070 294Q1025 145 901.0 60.5Q777 -24 613 -24Z"/><path transform="translate(48.824,0) scale(0.001678,-0.001678)" d="M628 -24Q466 -24 348.5 48.0Q231 120 167.5 249.0Q104 378 104 550Q104 722 166.0 853.0Q228 984 341.5 1058.0Q455 1132 607 1132Q696 1132 782.5 1102.5Q869 1073 939.5 1007.5Q1010 942 1052.0 835.0Q1094 728 1094 573V498H286Q293 323 386.5 229.5Q480 136 629 136Q728 136 799.5 179.5Q871 223 902 308L1076 260Q1037 133 918.5 54.5Q800 -24 628 -24ZM287 650H911Q898 793 821.5 882.5Q745 972 607 972Q511 972 441.5 927.0Q372 882 332.0 809.0Q292 736 287 650Z"/><path transform="translate(50.827,0) scale(0.001678,-0.001678)" d="M538 -24Q366 -24 252.0 51.0Q138 126 108 271L279 312Q303 220 369.5 177.0Q436 134 536 134Q653 134 722.5 184.0Q792 234 792 303Q792 418 628 457L442 501Q142 572 142 806Q142 902 196.0 975.5Q250 1049 343.5 1090.5Q437 1132 556 1132Q729 1132 824.5 1056.5Q920 981 958 863L795 821Q772 881 718.5 930.0Q665 979 557 979Q457 979 390.5 933.0Q324 887 324 817Q324 755 369.0 717.5Q414 680 512 657L681 617Q833 581 906.0 505.5Q979 430 979 315Q979 217 923.5 140.5Q868 64 768.5 20.0Q669 -24 538 -24Z"/><path transform="translate(52.641,0) scale(0.001678,-0.001678)" d="M295 -13Q239 -13 199.5 26.5Q160 66 160 122Q160 178 199.5 217.5Q239 257 295 257Q351 257 390.5 217.5Q430 178 430 122Q430 66 390.5 26.5Q351 -13 295 -13Z"/></g>
  <line x1="0" y1="-1" x2="0" y2="-4" stroke="#000" stroke-width="0.2"/>
  <line x1="-1" y1="0" x2="-4" y2="0" stroke="#000" stroke-width="0.2"/>
  <line x1="85" y1="-1" x2="85" y2="-4" stroke="#000" stroke-width="0.2"/>
  <line x1="86" y1="0" x2="89" y2="0" stroke="#000" stroke-width="0.2"/>
  <line x1="0" y1="56" x2="0" y2="59" stroke="#000" stroke-width="0.2"/>
  <line x1="-1" y1="55" x2="-4" y2="55" stroke="#000" stroke-width="0.2"/>
  <line x1="85" y1="56" x2="85" y2="59" stroke="#000" stroke-width="0.2"/>
  <line x1="86" y1="55" x2="89" y2="55" stroke="#000" stroke-width="0.2"/>
</svg>
